C:/Program Files/Krita (x64)/bin/ffmpeg.exe -hide_banner -y -y -r 24 -start_number 0 -start_number_range 1 -i C:/Users/james/OneDrive/Documents/jamesevans-portfolio/projects/somethingnew-landingpage/frame%04d.png -i C:/Users/james/OneDrive/Documents/jamesevans-portfolio/projects/somethingnew-landingpage/KritaTempPalettegen_%06d.png -lavfi [0:v][1:v]paletteuse=dither=sierra2_4a:diff_mode=none -f gif -loop 0 -gifflags +transdiff C:/Users/james/OneDrive/Documents/jamesevans-portfolio/projects/somethingnew-landingpage/album-desktop.gif
=====================================================
Input #0, image2, from 'C:/Users/james/OneDrive/Documents/jamesevans-portfolio/projects/somethingnew-landingpage/frame%04d.png':
  Duration: 00:00:09.72, start: 0.000000, bitrate: N/A
  Stream #0:0: Video: png, rgba(pc), 720x720 [SAR 11811:11811 DAR 1:1], 25 fps, 25 tbr, 25 tbn, 25 tbc
Input #1, image2, from 'C:/Users/james/OneDrive/Documents/jamesevans-portfolio/projects/somethingnew-landingpage/KritaTempPalettegen_%06d.png':
  Duration: 00:00:00.04, start: 0.000000, bitrate: N/A
  Stream #1:0: Video: png, rgba(pc), 16x16 [SAR 1:1 DAR 1:1], 25 fps, 25 tbr, 25 tbn, 25 tbc
Stream mapping:
  Stream #0:0 (png) -> paletteuse:default
  Stream #1:0 (png) -> paletteuse:palette
  paletteuse -> Stream #0:0 (gif)
Press [q] to stop, [?] for help
[image2 @ 000001d7cb54db80] Thread message queue blocking; consider raising the thread_queue_size option (current value: 8)
Output #0, gif, to 'C:/Users/james/OneDrive/Documents/jamesevans-portfolio/projects/somethingnew-landingpage/album-desktop.gif':
  Metadata:
    encoder         : Lavf58.76.100
  Stream #0:0: Video: gif, pal8(pc, gbr/unknown/unknown, progressive), 720x720 [SAR 1:1 DAR 1:1], q=2-31, 200 kb/s, 24 fps, 100 tbn (default)
    Metadata:
      encoder         : Lavc58.134.100 gif
frame=    1 fps=0.0 q=-0.0 size=       0kB time=00:00:00.01 bitrate=   0.0kbits/s speed=0.323x    frame=   24 fps=0.0 q=-0.0 size=     512kB time=00:00:00.97 bitrate=4324.0kbits/s speed=1.79x    frame=   46 fps= 43 q=-0.0 size=    2304kB time=00:00:01.89 bitrate=9986.4kbits/s speed=1.76x    frame=   69 fps= 44 q=-0.0 size=    3584kB time=00:00:02.84 bitrate=10338.1kbits/s speed=1.79x    frame=   92 fps= 44 q=-0.0 size=    5376kB time=00:00:03.80 bitrate=11589.5kbits/s speed=1.82x    frame=  116 fps= 45 q=-0.0 size=    7424kB time=00:00:04.80 bitrate=12670.3kbits/s speed=1.84x    frame=  141 fps= 45 q=-0.0 size=    9216kB time=00:00:05.84 bitrate=12927.6kbits/s speed=1.87x    frame=  163 fps= 45 q=-0.0 size=   11008kB time=00:00:06.76 bitrate=13339.9kbits/s speed=1.86x    frame=  187 fps= 45 q=-0.0 size=   13056kB time=00:00:07.76 bitrate=13782.8kbits/s speed=1.86x    frame=  210 fps= 45 q=-0.0 size=   14592kB time=00:00:08.72 bitrate=13708.4kbits/s speed=1.87x    frame=  233 fps= 45 q=-0.0 size=   16384kB time=00:00:09.68 bitrate=13865.5kbits/s speed=1.87x    frame=  243 fps= 45 q=-0.0 Lsize=   17296kB time=00:00:10.09 bitrate=14042.7kbits/s speed=1.86x    
video:17296kB audio:0kB subtitle:0kB other streams:0kB global headers:0kB muxing overhead: 0.000113%
